<?xml version="1.0" standalone="no"?>
<!DOCTYPE svg PUBLIC "-//W3C//DTD SVG 20010904//EN"
 "http://www.w3.org/TR/2001/REC-SVG-20010904/DTD/svg10.dtd">
<svg version="1.0" xmlns="http://www.w3.org/2000/svg"
 width="223.000000pt" height="224.000000pt" viewBox="0 0 223.000000 224.000000"
 preserveAspectRatio="xMidYMid meet">
<metadata>
Created by potrace 1.10, written by Peter Selinger 2001-2011
</metadata>
<g transform="translate(0.000000,224.000000) scale(0.100000,-0.100000)"
fill="#000000" stroke="none">
<path d="M674 2170 c-36 -8 -136 -61 -129 -68 3 -3 -9 -14 -27 -25 -127 -77
-293 -259 -381 -418 -35 -63 -87 -203 -87 -231 1 -7 16 30 34 82 18 52 37 104
43 115 6 11 52 42 102 68 50 27 93 52 96 58 11 16 -9 10 -46 -16 -20 -13 -39
-21 -43 -18 -3 4 -6 1 -6 -5 0 -7 -5 -12 -12 -12 -36 0 80 73 152 95 22 7 23
6 11 -9 -7 -9 -20 -16 -28 -16 -8 0 -12 -4 -8 -10 3 -5 -10 -31 -30 -58 -48
-68 -99 -180 -126 -282 -20 -73 -23 -108 -23 -250 0 -138 4 -178 22 -245 57
-208 186 -399 355 -526 68 -52 135 -90 156 -89 3 0 -17 15 -46 33 -226 145
-379 347 -445 591 -32 116 -32 363 0 481 38 139 112 276 211 395 25 30 45 57
44 61 -1 3 10 17 25 30 l27 24 -20 -24 c-25 -30 -7 -20 60 33 58 45 227 129
300 148 28 7 52 16 55 20 9 12 137 28 220 28 84 0 211 -16 220 -28 3 -4 25
-14 50 -21 129 -37 266 -119 379 -226 126 -120 216 -271 263 -440 32 -118 32
-365 0 -482 -12 -45 -19 -88 -16 -96 3 -8 -14 -52 -37 -98 -49 -99 -77 -141
-89 -134 -5 3 -12 0 -16 -6 -4 -8 -3 -9 4 -5 17 10 15 -9 -1 -23 -8 -6 -18 -7
-22 -3 -5 4 -5 2 -2 -4 8 -13 -31 -67 -42 -59 -4 2 -23 -11 -41 -30 -19 -19
-30 -35 -26 -35 5 0 3 -7 -4 -15 -18 -21 -35 -19 -19 2 11 15 10 15 -8 -1 -13
-10 -20 -22 -18 -27 11 -17 -138 -105 -157 -93 -7 4 -8 3 -4 -4 8 -14 -61 -45
-81 -37 -8 2 -12 1 -8 -4 7 -12 -61 -35 -81 -27 -8 3 -36 3 -61 -1 -34 -4 -42
-8 -28 -13 11 -4 32 -2 47 4 20 7 31 7 39 -1 17 -17 -112 -37 -246 -37 -110 0
-263 19 -251 32 3 3 -27 16 -67 29 -39 14 -87 34 -106 45 -27 17 -35 19 -42 7
-12 -20 -11 -29 4 -24 8 4 12 -8 12 -39 0 -25 -4 -48 -8 -52 -4 -4 -7 0 -7 10
0 10 -5 14 -12 10 -8 -5 -9 0 -6 14 7 26 -7 30 -15 5 -2 -10 -8 -25 -11 -34
-6 -13 14 -24 99 -58 59 -23 116 -44 128 -45 12 -2 33 -6 47 -10 14 -3 59 -8
100 -11 178 -13 335 0 465 37 71 20 259 107 251 116 -3 2 18 20 47 40 200 137
340 328 427 586 26 79 41 143 21 93 -4 -11 -37 -31 -81 -48 -40 -15 -77 -34
-82 -41 -6 -11 -8 -11 -8 0 0 7 6 23 14 35 51 78 60 395 17 546 -85 290 -295
528 -563 637 -43 17 -75 33 -73 36 3 3 -32 13 -77 24 -115 26 -321 26 -435 0
-46 -11 -83 -23 -83 -28 0 -4 -6 -8 -12 -8 -23 0 -131 -57 -215 -113 -46 -30
-80 -50 -77 -45 4 6 37 30 75 54 38 25 69 49 69 54 0 5 12 20 26 33 17 16 22
27 15 31 -6 4 -11 2 -11 -4 0 -6 -5 -8 -10 -5 -13 8 -2 27 13 22 7 -2 23 4 36
14 13 11 33 19 44 19 34 0 6 17 -38 23 -22 2 -54 1 -71 -3z m-7 -48 c-18 -20
-23 -47 -7 -37 25 15 6 -11 -41 -56 -39 -37 -55 -47 -64 -39 -10 8 -15 8 -21
-1 -5 -8 -3 -10 7 -5 8 4 5 1 -5 -8 -10 -8 -23 -13 -29 -9 -6 3 -7 1 -4 -4 9
-14 -29 -47 -44 -37 -7 4 -10 3 -5 -4 3 -5 3 -12 -2 -14 -4 -1 -17 -16 -30
-32 -16 -21 -22 -24 -22 -12 0 33 50 121 80 141 16 11 30 23 30 28 0 4 7 7 16
7 8 0 13 4 10 9 -3 4 11 17 32 27 20 10 45 27 56 36 10 10 23 15 28 12 4 -3 8
0 8 5 0 6 5 11 12 11 6 0 4 -7 -5 -18z m-270 -217 c-10 -28 -21 -41 -35 -43
-26 -4 -22 14 17 70 30 42 38 30 18 -27z m38 -65 c-24 -25 -34 -29 -73 -26
-24 2 -39 0 -33 -4 7 -4 -8 -19 -37 -37 -46 -29 -49 -29 -44 -9 3 11 14 28 24
37 10 9 18 24 18 33 0 13 9 15 59 10 46 -5 64 -3 82 10 35 24 36 20 4 -14z
m1705 -1000 c0 -5 -3 -10 -7 -10 -5 0 -9 -10 -9 -23 -1 -12 -17 -53 -35 -92
-18 -38 -34 -73 -35 -77 -1 -5 -2 -11 -3 -15 -1 -5 -6 -1 -12 7 -9 12 -10 12
-5 -4 4 -11 3 -22 -2 -25 -4 -3 -26 -33 -48 -66 -44 -67 -164 -197 -164 -177
0 7 -14 -3 -31 -23 -17 -19 -35 -35 -40 -35 -5 0 -23 -15 -39 -33 -25 -27 -29
-29 -30 -13 0 16 -5 13 -25 -14 -14 -19 -25 -28 -25 -21 0 6 -15 -2 -32 -18
-33 -31 -52 -38 -62 -23 -2 4 -27 7 -55 6 -46 -1 -49 1 -40 18 6 11 18 21 27
24 9 3 25 10 34 15 10 5 25 9 33 9 10 0 13 5 9 12 -5 8 -2 9 10 5 13 -5 24 1
38 18 11 14 26 25 34 25 24 0 97 50 142 99 23 25 42 41 42 36 1 -6 7 1 15 15
8 14 14 21 15 16 0 -6 11 5 25 24 14 19 25 30 25 25 0 -17 65 87 125 198 46
88 61 108 76 104 10 -3 18 -2 17 2 -2 15 3 21 17 21 8 0 15 -4 15 -10z m-1414
-589 c-5 -8 18 -20 49 -25 6 -1 9 -6 8 -12 -1 -5 15 -8 36 -6 44 4 52 -7 39
-55 -9 -36 -31 -43 -47 -15 -6 9 -11 11 -11 5 0 -26 -20 -12 -21 15 -1 17 -3
21 -6 9 -4 -14 -8 -16 -19 -6 -11 9 -14 9 -14 -1 0 -10 -3 -10 -15 0 -8 6 -19
9 -25 5 -6 -4 -10 5 -10 22 0 44 11 73 27 73 8 0 12 -4 9 -9z m228 -81 c5 -5
4 -21 -3 -38 -10 -24 -18 -29 -44 -29 -41 2 -47 11 -34 53 10 32 13 34 41 28
17 -3 35 -10 40 -14z m80 -46 c-21 -31 -74 -34 -74 -5 0 34 26 51 60 40 28
-10 29 -12 14 -35z m481 31 l40 -13 -39 -1 c-22 -1 -73 -10 -114 -22 -79 -22
-101 -20 -55 5 15 8 23 15 16 16 -14 0 -75 -32 -84 -44 -4 -5 -19 -6 -33 -4
-14 3 -26 2 -26 -1 0 -3 -15 -6 -32 -7 -18 0 -62 -3 -98 -7 l-65 -7 43 21 c24
11 51 22 60 24 9 2 31 9 47 14 102 36 271 49 340 26z m-365 -2 c0 -1 -22 -13
-50 -27 -45 -23 -50 -23 -50 -8 0 28 17 38 60 37 22 0 40 -1 40 -2z"/>
<path d="M1625 2149 c33 -17 65 -37 72 -46 6 -8 14 -10 17 -5 5 9 -122 83
-140 82 -5 -1 18 -15 51 -31z"/>
<path d="M1585 1927 c7 -36 -19 -136 -56 -208 -16 -32 -29 -64 -29 -71 1 -17
58 103 81 172 15 44 18 48 15 20 -2 -19 -5 -39 -6 -45 -1 -5 -2 -21 -1 -35 1
-20 3 -22 11 -10 8 11 9 7 5 -15 -5 -23 -4 -26 4 -14 12 19 -3 192 -20 217 -8
14 -9 11 -4 -11z"/>
<path d="M1902 1938 c36 -28 108 -123 103 -136 -2 -7 -1 -11 4 -8 13 8 35 -21
80 -104 22 -41 41 -71 41 -66 1 41 -202 326 -232 326 -7 0 -5 -6 4 -12z"/>
<path d="M1622 1850 c-1 -25 7 -81 18 -125 l18 -80 -3 99 c-4 97 -13 141 -17
75 -1 -25 -3 -19 -8 21 l-7 55 -1 -45z"/>
<path d="M987 1849 c-116 -27 -217 -134 -217 -229 0 -25 -7 -34 -32 -48 -63
-34 -81 -59 -75 -105 2 -23 8 -49 11 -58 4 -9 -5 -30 -24 -54 -42 -52 -40 -91
5 -135 19 -19 35 -39 35 -45 0 -6 -11 -26 -25 -45 -37 -51 -33 -81 20 -133 51
-51 54 -60 24 -81 -21 -15 -21 -15 12 -35 40 -25 89 -27 128 -6 35 17 43 37
35 80 -5 29 -3 33 26 45 46 19 70 55 70 106 0 24 2 44 3 44 2 0 18 -7 36 -16
31 -15 34 -15 88 12 30 16 68 43 83 62 l27 34 5 -61 c5 -68 26 -99 90 -132 40
-21 89 -28 56 -8 -27 15 -21 50 17 98 43 54 44 84 4 145 -32 47 -32 48 -15 82
21 45 20 72 -4 134 -11 28 -20 63 -20 77 0 15 -10 47 -22 72 l-23 46 -5 -65
-5 -65 -17 36 c-9 20 -21 40 -27 43 -6 4 -11 11 -11 17 0 17 15 9 33 -18 l18
-28 -4 49 c-5 50 -33 99 -60 104 -13 3 -15 -3 -11 -30 3 -18 -1 -44 -9 -58
-13 -23 -11 -28 30 -72 24 -26 43 -53 43 -59 0 -7 -7 -4 -16 7 -15 19 -16 19
-7 -1 4 -11 7 -54 7 -95 -3 -144 -67 -255 -170 -293 -39 -14 -50 -15 -77 -3
-18 7 -45 29 -60 49 -35 46 -80 164 -73 191 6 26 48 54 54 37 5 -14 32 -15 32
0 0 5 5 7 10 4 17 -11 11 7 -7 21 -15 11 -16 13 -2 14 24 0 39 -21 39 -60 1
-28 3 -32 11 -18 13 22 2 65 -21 81 -16 11 -18 21 -10 77 4 36 11 72 15 82 10
25 60 42 103 33 68 -13 77 -12 80 13 6 38 -23 70 -80 87 -64 19 -113 8 -164
-37 -40 -36 -59 -68 -68 -119 -9 -49 -37 -83 -85 -102 -56 -23 -80 -58 -74
-106 4 -30 -1 -49 -21 -84 -26 -44 -27 -47 -11 -77 22 -42 9 -52 -21 -17 -32
38 -30 72 7 115 24 27 29 40 24 61 -23 92 -15 110 60 131 57 16 73 34 85 100
19 102 93 173 193 186 68 10 138 -22 158 -71 7 -17 8 -16 8 8 1 40 -36 73 -98
86 -59 12 -61 12 -114 0z m132 -103 c15 -8 34 -23 42 -32 13 -16 12 -17 -6
-10 -11 5 -43 11 -71 13 -46 5 -55 2 -84 -24 -28 -25 -33 -37 -39 -93 -10 -89
-22 -107 -97 -140 -78 -35 -95 -62 -70 -111 22 -45 20 -75 -9 -113 -28 -37
-31 -62 -10 -90 23 -30 18 -50 -20 -83 -19 -17 -35 -39 -35 -48 0 -9 -4 -13
-10 -10 -20 13 -9 44 26 73 l37 30 -22 28 c-28 36 -27 79 4 116 28 33 31 61
10 98 -34 59 -14 95 74 135 59 28 74 52 76 123 4 110 114 184 204 138z m221
-268 c-1 -13 -7 -41 -15 -63 -8 -23 -12 -55 -9 -76 7 -40 -9 -79 -31 -79 -19
0 -38 38 -29 58 6 14 8 13 13 -6 9 -35 26 -31 29 6 3 27 0 32 -18 32 -16 0
-20 4 -16 16 3 9 9 28 12 42 15 70 26 92 45 92 13 0 19 -7 19 -22z m-495 -78
c-3 -5 -1 -10 6 -10 7 0 4 -7 -7 -16 -10 -8 -14 -13 -7 -10 6 4 15 1 19 -5 5
-8 3 -9 -6 -4 -9 5 -11 1 -6 -16 4 -17 1 -14 -11 8 -13 26 -14 35 -3 48 14 17
25 21 15 5z m11 -175 c-20 -30 -20 -64 -1 -89 21 -27 19 -40 -9 -73 -30 -35
-46 -24 -17 13 20 26 17 53 -9 69 -18 11 -11 53 15 91 14 20 26 46 27 58 0 12
3 6 5 -12 3 -20 -2 -43 -11 -57z m504 -15 c-6 -19 -26 -53 -45 -74 -40 -45
-46 -38 -12 13 39 61 47 76 47 96 0 12 3 16 10 9 6 -6 6 -22 0 -44z m-31 33
c9 9 11 8 6 -5 -4 -10 -11 -18 -17 -18 -5 0 -6 -4 -3 -10 3 -5 2 -10 -4 -10
-5 0 -13 -9 -16 -20 -7 -22 -34 -28 -36 -7 -1 6 -3 25 -5 40 -3 25 -1 27 13
15 14 -11 16 -11 10 4 -5 14 -2 16 17 8 16 -6 27 -5 35 3z m-419 -38 c0 17 34
-39 37 -60 3 -18 1 -18 -17 4 -23 27 -24 25 -10 -16 14 -38 1 -73 -40 -110
-29 -26 -31 -31 -25 -75 5 -34 3 -48 -5 -48 -7 0 -10 6 -7 14 3 8 1 28 -6 45
-11 29 -9 33 25 68 45 47 56 84 34 118 -9 14 -15 39 -14 56 2 27 4 28 15 13 7
-10 13 -14 13 -9z m-101 -211 c-7 -16 -14 -40 -16 -54 -5 -28 -21 -50 -36 -50
-7 0 -7 4 1 12 14 14 16 58 2 58 -5 0 -6 7 -3 17 4 11 3 14 -5 9 -8 -5 -10 -1
-5 11 9 27 24 43 34 37 5 -3 9 1 9 8 0 9 4 8 15 -3 13 -13 14 -21 4 -45z"/>
<path d="M1514 1743 c-34 -71 -38 -85 -38 -158 l0 -80 -13 47 c-13 44 -12 52
12 121 27 81 29 87 17 87 -4 0 -8 -8 -9 -17 -1 -24 -42 -132 -43 -113 0 13 -1
13 -10 0 -15 -24 -11 -71 10 -119 11 -24 18 -46 15 -49 -2 -3 -14 15 -25 39
-11 24 -17 33 -14 19 6 -23 26 -59 78 -142 10 -16 23 -44 27 -61 8 -29 8 -28
4 8 -3 22 -18 59 -35 83 -17 25 -29 46 -27 49 7 6 58 -59 73 -92 7 -16 13 -24
14 -17 0 18 -17 49 -61 107 -34 46 -69 138 -56 151 2 3 10 -17 16 -43 11 -44
91 -159 103 -148 7 7 7 -69 0 -80 -4 -5 -8 -17 -9 -25 -1 -9 -9 -31 -17 -50
l-15 -35 -1 49 c0 31 -8 62 -22 87 -31 55 -40 49 -12 -8 27 -52 32 -124 12
-170 -7 -15 -27 -45 -45 -65 -38 -44 -51 -84 -33 -101 10 -9 11 -9 6 0 -10 18
10 58 50 102 61 68 78 52 49 -46 -13 -43 -20 -52 -56 -68 -53 -24 -111 -91
-107 -124 2 -13 8 -26 14 -28 22 -7 79 44 110 101 37 67 69 96 58 52 -7 -28
12 -36 34 -14 9 9 12 9 12 0 0 -17 20 -15 42 5 36 32 17 2 -33 -53 -51 -56
-60 -89 -24 -89 15 0 29 18 52 65 25 51 36 64 52 62 10 -2 22 2 26 8 5 8 11 7
22 -1 12 -10 21 -9 48 6 19 10 32 22 29 27 -3 4 -15 1 -27 -7 -32 -22 -50 -20
-37 5 19 35 -16 37 -52 4 -28 -27 -30 -27 -24 -6 10 30 -9 28 -30 -3 -9 -14
-21 -25 -26 -25 -6 0 -3 11 6 24 18 29 4 45 -16 18 -7 -10 -19 -22 -27 -27
-11 -6 -13 -2 -7 19 6 25 5 26 -14 16 -24 -13 -24 -11 -3 56 18 57 8 89 -24
77 -37 -14 11 40 65 74 63 39 122 91 122 107 0 5 -15 -4 -32 -20 -44 -40 -138
-106 -138 -96 0 12 60 66 102 91 46 27 109 100 106 121 -1 8 3 29 10 45 9 22
10 51 3 105 -7 60 -9 66 -10 30 -2 -86 -19 -120 -89 -187 -37 -35 -60 -63 -53
-63 11 0 9 -5 -4 -20 -10 -11 -15 -20 -11 -20 11 0 134 100 139 113 4 9 6 9 6
0 1 -6 -11 -25 -25 -42 -31 -37 -144 -125 -144 -112 0 6 4 12 8 15 9 5 14 43
13 109 0 20 4 37 9 37 5 0 17 3 27 6 16 5 16 4 -1 -10 -11 -9 -21 -23 -22 -31
-1 -8 18 3 46 26 31 26 48 48 47 62 0 12 4 31 8 41 6 14 5 17 -3 12 -7 -4 -12
-1 -12 6 0 23 -24 68 -35 66 -5 -1 -20 3 -33 10 -12 7 -32 10 -43 7 -20 -7
-59 -60 -59 -80 0 -5 8 4 18 20 43 70 69 69 109 -1 25 -42 29 -41 12 3 -8 22
-8 25 2 16 18 -17 24 -110 9 -128 -20 -24 -29 -17 -17 14 14 37 -2 76 -38 93
-22 10 -30 8 -53 -9 -39 -29 -43 -80 -7 -109 15 -12 26 -26 24 -32 -2 -6 -19
2 -37 17 -41 35 -52 85 -28 132 19 37 19 39 7 39 -4 0 -13 -15 -19 -32 -11
-32 -11 -32 -8 14 2 28 19 80 40 124 20 42 35 79 32 81 -2 2 -21 -31 -42 -74z
m112 -188 c28 -42 -6 -104 -41 -75 -6 5 -15 7 -18 3 -12 -12 -37 20 -37 48 0
50 67 68 96 24z m105 -64 c-20 -38 -108 -117 -119 -106 -3 3 20 28 51 55 32
30 61 66 69 87 7 20 14 29 16 20 2 -8 -6 -34 -17 -56z m-272 -538 c-25 -40
-66 -83 -80 -83 -15 0 -9 34 9 57 20 27 84 75 90 68 2 -2 -6 -21 -19 -42z
m140 -42 c-12 -23 -29 -41 -36 -41 -16 0 -12 9 26 57 33 43 39 34 10 -16z"/>
<path d="M1550 1555 c-18 -22 -8 -50 18 -48 12 2 22 -2 22 -7 0 -16 27 -11 34
6 9 22 -20 64 -43 64 -10 0 -24 -7 -31 -15z"/>
<path d="M1671 1780 c-1 -8 4 -31 10 -50 6 -19 14 -62 19 -95 7 -57 7 -58 9
-15 1 40 -36 197 -38 160z"/>
<path d="M1549 1703 c-13 -32 -26 -62 -28 -67 -2 -5 9 0 24 12 33 26 52 28 77
5 10 -9 18 -11 18 -5 0 6 -9 16 -20 22 -12 7 -18 16 -13 23 4 7 0 7 -10 -2
-14 -11 -17 -11 -17 0 0 8 -6 5 -15 -7 -19 -25 -19 -15 0 27 10 25 15 29 15
14 1 -11 4 -15 6 -8 3 7 1 19 -3 28 -7 12 -15 2 -34 -42z"/>
<path d="M1705 1725 c17 -45 17 -140 1 -180 -13 -33 -13 -36 -1 -21 8 11 18
35 21 54 9 45 -2 142 -17 156 -9 8 -10 6 -4 -9z"/>
<path d="M1130 1521 c-26 -9 -46 -24 -48 -34 -3 -16 2 -15 50 6 35 16 60 21
73 16 35 -13 41 -9 16 11 -27 23 -32 23 -91 1z"/>
<path d="M1121 1467 c-14 -6 -27 -18 -29 -26 -4 -11 0 -10 18 2 22 15 24 15
37 -1 12 -16 14 -16 26 0 8 10 17 15 20 12 3 -3 11 -3 18 2 9 5 7 10 -7 15
-29 11 -56 10 -83 -4z"/>
<path d="M30 1342 c-6 -39 -10 -83 -7 -99 4 -25 4 -24 6 8 0 19 6 61 12 93 6
32 8 60 6 63 -3 2 -10 -27 -17 -65z"/>
<path d="M1003 1283 c-18 -7 -16 -27 5 -46 27 -25 58 -21 87 10 23 25 23 28 7
35 -20 8 -81 9 -99 1z"/>
<path d="M1235 981 c-86 -35 -138 -62 -132 -68 3 -2 48 14 100 36 53 23 103
41 111 41 8 0 18 5 21 10 11 18 -28 10 -100 -19z"/>
<path d="M1304 799 c-3 -5 -1 -9 5 -9 15 0 71 -97 71 -123 0 -13 -5 -28 -12
-35 -9 -9 -4 -12 22 -12 26 0 31 3 22 12 -20 20 -13 57 20 106 17 26 36 50 42
54 6 4 -2 8 -17 8 -16 0 -26 -4 -23 -8 3 -5 -4 -24 -16 -42 -19 -33 -21 -33
-35 -15 -7 11 -16 30 -19 41 -6 22 -50 39 -60 23z"/>
<path d="M615 743 c0 -32 -3 -74 -7 -93 -5 -29 -3 -36 11 -36 14 0 16 11 13
76 -4 85 3 85 38 -2 13 -32 27 -58 31 -58 3 0 20 30 38 68 l31 67 -3 -73 c-2
-66 0 -72 18 -72 19 0 20 7 20 90 0 83 -1 90 -20 90 -15 0 -27 -17 -49 -66
l-30 -66 -25 66 c-20 51 -30 66 -46 66 -18 0 -20 -7 -20 -57z"/>
<path d="M855 710 c0 -83 1 -90 20 -90 19 0 20 7 20 90 0 83 -1 90 -20 90 -19
0 -20 -7 -20 -90z"/>
<path d="M945 710 c0 -84 1 -90 20 -90 18 0 20 5 17 40 -2 22 0 40 5 40 5 0
24 -18 41 -39 30 -37 67 -59 79 -48 2 3 -14 22 -36 42 -43 39 -51 55 -26 55
32 0 40 62 11 82 -6 4 -33 8 -61 8 l-50 0 0 -90z m79 74 c21 -8 21 -60 0 -68
-35 -13 -44 -7 -44 34 0 41 9 47 44 34z"/>
<path d="M1190 720 c-18 -44 -36 -83 -41 -86 -16 -9 -10 -20 11 -20 12 0 20 7
20 17 0 36 12 49 46 49 30 0 35 -4 40 -29 4 -20 13 -30 30 -34 29 -5 29 -6 5
35 -10 18 -27 59 -38 90 -10 32 -23 58 -29 58 -7 0 -26 -36 -44 -80z m54 -7
c6 -20 4 -23 -18 -23 -30 0 -29 -2 -15 40 12 34 19 30 33 -17z"/>
<path d="M1499 710 c-22 -54 -32 -90 -25 -90 6 0 17 14 23 30 9 25 17 30 42
30 24 0 34 -6 40 -22 5 -13 7 -26 5 -29 -5 -10 46 -18 51 -9 3 4 -1 10 -8 13
-6 2 -25 41 -42 86 -16 44 -34 81 -40 81 -5 0 -26 -41 -46 -90z m59 8 c11 -27
11 -28 -19 -28 -26 0 -30 3 -24 18 4 9 10 25 12 35 6 21 14 14 31 -25z"/>
<path d="M110 717 c-1 -18 67 -137 118 -207 74 -101 92 -121 197 -207 50 -40
97 -79 105 -87 8 -7 26 -19 40 -26 17 -9 13 -1 -15 24 -22 20 -43 36 -47 36
-4 0 -13 6 -20 13 -7 6 -33 28 -58 48 -76 62 -124 111 -178 182 -63 83 -75
104 -66 119 4 7 3 8 -4 4 -7 -4 -23 16 -41 51 -17 32 -30 54 -31 50z"/>
<path d="M727 553 c-2 -5 -3 -21 -3 -38 1 -31 28 -47 47 -28 16 16 -1 73 -22
73 -10 0 -20 -3 -22 -7z"/>
<path d="M800 520 c0 -36 3 -40 25 -40 31 0 32 8 3 20 -18 7 -19 9 -5 9 21 1
23 21 1 21 -8 0 -12 5 -9 10 4 6 10 8 15 5 5 -3 11 -1 15 5 4 6 -5 10 -19 10
-24 0 -26 -4 -26 -40z"/>
<path d="M876 524 c-9 -20 -14 -39 -10 -43 4 -3 9 0 11 7 3 6 11 12 18 12 7 0
15 -6 18 -12 2 -7 7 -11 10 -7 8 6 -14 79 -23 79 -3 0 -14 -16 -24 -36z"/>
<path d="M940 531 c0 -32 22 -56 44 -48 18 7 30 57 17 70 -8 8 -11 1 -11 -21
0 -22 -5 -32 -15 -32 -10 0 -15 10 -15 30 0 17 -4 30 -10 30 -5 0 -10 -13 -10
-29z"/>
<path d="M1020 549 c0 -5 5 -7 10 -4 6 4 10 -8 10 -29 0 -20 5 -36 10 -36 6 0
10 16 10 36 0 21 4 33 10 29 6 -3 10 -1 10 4 0 6 -13 11 -30 11 -16 0 -30 -5
-30 -11z"/>
<path d="M1104 535 c9 -13 16 -31 16 -40 0 -8 5 -15 10 -15 6 0 10 8 10 18 0
10 7 28 16 40 8 12 11 22 5 22 -5 0 -15 -8 -21 -17 -10 -17 -10 -17 -20 0 -6
9 -16 17 -22 17 -6 0 -3 -11 6 -25z"/>
<path d="M1230 545 c-25 -31 9 -76 46 -60 17 8 16 9 -8 13 -38 5 -40 42 -2 42
14 0 23 4 19 10 -9 15 -41 12 -55 -5z"/>
<path d="M1316 536 c-3 -13 -9 -32 -12 -41 -6 -15 -4 -15 15 -3 18 11 23 11
31 -2 17 -27 20 -3 5 33 -18 43 -30 47 -39 13z"/>
<path d="M1380 521 c0 -39 20 -61 20 -23 1 16 1 16 14 0 15 -20 31 -25 19 -5
-4 6 -8 23 -8 37 0 18 -6 26 -22 28 -21 3 -23 -1 -23 -37z"/>
<path d="M1460 520 c0 -36 3 -40 25 -40 31 0 32 8 3 20 -18 7 -19 9 -5 9 21 1
23 21 2 21 -8 0 -15 5 -15 11 0 6 7 9 15 6 8 -4 17 -2 20 3 4 6 -5 10 -19 10
-24 0 -26 -4 -26 -40z"/>
<path d="M1639 367 c-25 -18 -55 -38 -65 -45 -11 -7 -1 -3 21 7 36 18 108 71
95 70 -3 0 -26 -15 -51 -32z"/>
</g>
</svg>
